HIERARCHY
ROOT Hips
{
  OFFSET 265.287 66.7526 -254.649
  CHANNELS 6 Xposition Yposition Zposition Zrotation Xrotation Yrotation
  JOINT LeftUpLeg
  {
    OFFSET 8.64259 1.95398 -2.38835
    CHANNELS 3 Zrotation Xrotation Yrotation
    JOINT LeftLeg
    {
      OFFSET 43.7702 0 0
      CHANNELS 3 Zrotation Xrotation Yrotation
      JOINT LeftFoot
      {
        OFFSET 40.6238 0 0
        CHANNELS 3 Zrotation Xrotation Yrotation
        JOINT LeftToeBase
        {
          OFFSET 12.7242 0 0
          CHANNELS 3 Zrotation Xrotation Yrotation
          End Site
          {
            OFFSET 0 0 0
          }
        }
      }
    }
  }
  JOINT RightUpLeg
  {
    OFFSET -8.2249 1.95398 -2.59336
    CHANNELS 3 Zrotation Xrotation Yrotation
    JOINT RightLeg
    {
      OFFSET 43.5653 0 0
      CHANNELS 3 Zrotation Xrotation Yrotation
      JOINT RightFoot
      {
        OFFSET 40.6238 0 0
        CHANNELS 3 Zrotation Xrotation Yrotation
        JOINT RightToeBase
        {
          OFFSET 12.7242 0 0
          CHANNELS 3 Zrotation Xrotation Yrotation
          End Site
          {
            OFFSET 0 0 0
          }
        }
      }
    }
  }
  JOINT Spine
  {
    OFFSET 0.165834 0.87714 6.61349
    CHANNELS 3 Zrotation Xrotation Yrotation
    JOINT Spine1
    {
      OFFSET 7.38963 1.71661e-005 0
      CHANNELS 3 Zrotation Xrotation Yrotation
      JOINT Spine2
      {
        OFFSET 11.9445 1.14441e-005 0
        CHANNELS 3 Zrotation Xrotation Yrotation
        JOINT Spine3
        {
          OFFSET 14.7254 4.19617e-005 0
          CHANNELS 3 Zrotation Xrotation Yrotation
          JOINT Spine4
          {
            OFFSET 10.9679 0 0
            CHANNELS 3 Zrotation Xrotation Yrotation
            JOINT RightShoulder
            {
              OFFSET 2.46616 -1.6653 3.69651
              CHANNELS 3 Zrotation Xrotation Yrotation
              JOINT RightArm
              {
                OFFSET 13.0012 0 0
                CHANNELS 3 Zrotation Xrotation Yrotation
                JOINT RightForeArm
                {
                  OFFSET 28.7848 1.52588e-005 0
                  CHANNELS 3 Zrotation Xrotation Yrotation
                  JOINT RightHand
                  {
                    OFFSET 26.5688 1.52588e-005 0
                    CHANNELS 3 Zrotation Xrotation Yrotation
                    End Site
                    {
                      OFFSET 0 0 0
                    }
                  }
                }
              }
            }
            JOINT LeftShoulder
            {
              OFFSET 2.38034 -1.29275 -3.7523
              CHANNELS 3 Zrotation Xrotation Yrotation
              JOINT LeftArm
              {
                OFFSET 16.3182 6.10351e-005 0
                CHANNELS 3 Zrotation Xrotation Yrotation
                JOINT LeftForeArm
                {
                  OFFSET 27.0901 0 0
                  CHANNELS 3 Zrotation Xrotation Yrotation
                  JOINT LeftHand
                  {
                    OFFSET 24.5451 1.52588e-005 0
                    CHANNELS 3 Zrotation Xrotation Yrotation
                    End Site
                    {
                      OFFSET 0 0 0
                    }
                  }
                }
              }
            }
            JOINT Neck
            {
              OFFSET 5.0226 -0.0266342 0
              CHANNELS 3 Zrotation Xrotation Yrotation
              JOINT Head
              {
                OFFSET 6.69364 2.86102e-005 0
                CHANNELS 3 Zrotation Xrotation Yrotation
                End Site
                {
                  OFFSET 0 0 0
                }
              }
            }
          }
        }
      }
    }
  }
}
MOTION
Frames:	15
Frame Time:	0.0416667
76.0184 109.258 71.2875 -102.629 53.4662 -77.6692 -177.51 42.1492 94.9508 -11.5032 17.0119 3.27536 33.3374 -8.69878 -3.8365 47.7567 -5.5113 5.0867 170.101 -10.2529 84.0465 -52.9816 -12.0227 -2.06074 45.0591 7.13046 24.6974 53.7948 -3.55971 0.446586 1.6501 8.66953 -90.0881 9.54334 3.25029 -0.422666 -2.12366 3.22857 -0.565471 -24.6909 3.2269 0.574764 -4.67829 3.22691 0.574769 101.181 -22.8885 -84.4254 0.454032 14.0357 -41.6341 -3.98334 -0.10571 -46.0533 -6.70754 0.142764 -8.2913 -82.7266 -32.4116 87.5521 11.2169 2.02375 11.3336 0.0194995 -12.0676 1.6448e-005 9.83311 -0.317771 -6.49504 -12.2196 2.02624 -10.3516 -6.70677 1.96624 14.723 
60.605 110.304 57.3061 -110.09 59.4865 -70.4758 -174.449 31.2476 97.1897 -7.35479 15.1704 3.44437 30.3894 -9.36958 -5.02398 41.5289 -3.91947 3.03602 172.204 -5.48855 75.0644 -86.711 -5.22727 -5.92455 43.9472 6.31431 14.4811 45.9999 -2.52486 -0.955136 1.94055 8.44532 -90.0309 9.99462 3.85348 -0.37345 -1.67071 3.83328 -0.542932 -24.2508 3.78727 0.803666 -4.23815 3.78728 0.803668 101.422 -19.0528 -83.984 -5.54209 16.7907 -36.3307 -5.72469 -4.10258 -34.5374 -6.59825 0.128468 -8.04676 -80.9097 -26.8977 90.4921 12.5461 0.703092 20.6619 -0.497467 -19.4343 -5.39928 14.6264 -0.46443 -6.88915 -17.6618 3.95741 -7.81758 -4.42718 3.77587 13.9724 
45.6745 107.196 43.8324 -111.532 62.7079 -64.5842 -174.166 25.0227 100.468 -8.84286 18.7514 6.00141 26.9154 -9.60174 -8.35759 38.6409 -3.12416 3.99197 -178.443 0.769686 74.6695 -111.379 -12.6905 -4.82824 41.1362 8.15094 5.35843 39.1456 -1.47969 -0.699788 1.86872 7.97463 -90.4905 10.9508 3.49336 -1.30797 -0.716239 3.43244 -1.4606 -23.2889 3.72478 -0.196239 -3.27629 3.72479 -0.196242 101.458 -16.6823 -83.99 -10.1761 17.9762 -26.5734 -8.16702 -8.05613 -32.3625 -5.60654 0.0884018 -7.68424 -80.1516 -22.667 91.6951 11.4106 0.805804 29.263 -1.81892 -22.6346 -9.15668 22.3407 -0.355374 -5.61249 -19.0123 5.24937 -6.56703 -3.60267 5.13243 14.682 
31.486 100.152 30.855 -114.41 63.2444 -59.6753 -173.496 17.0144 101.299 -13.2304 18.6134 4.69441 19.7143 -10.1617 -13.4224 42.8475 -4.25333 4.1601 -171.739 8.53517 72.1007 -128.184 -24.3097 -2.30962 40.2198 10.3301 4.50568 45.0485 -2.36706 -0.604825 1.7365 7.93421 -90.5862 11.028 3.1852 -1.47638 -0.640055 3.11716 -1.61524 -23.2058 3.48153 -0.449804 -3.19318 3.48153 -0.449818 101.448 -18.1181 -83.9664 -9.72634 20.8188 -6.75913 -8.22084 -3.02687 -43.9669 -7.85704 0.0242489 -6.02469 -80.3949 -21.8849 91.1545 7.82015 0.833231 35.0208 -4.48496 -22.4802 -17.6031 30.7381 0.0965001 -3.75948 -19.9456 6.22966 -8.84282 -2.30959 6.21698 17.4689 
19.5955 91.6725 19.3185 -115.102 58.3662 -60.2756 -174.83 19.9888 96.3514 -51.5784 27.1111 4.73065 59.0796 2.27821 20.8012 45.5606 -5.2007 -0.594044 -176.948 26.5721 72.866 -136.136 -25.4752 -2.22355 39.0155 11.4769 8.06364 44.8241 -2.38116 -2.35711 0.932972 9.14572 -90.2154 8.58688 1.76637 -0.538781 -3.08302 1.74094 -0.616022 -25.6278 1.84659 0.0171585 -5.61517 1.84659 0.0171723 102.758 -29.1724 -80.9096 -7.70855 25.0246 17.8663 -5.54584 -0.835164 -65.142 -9.14249 0.0579133 -6.23633 -77.884 -34.9327 96.7688 5.97519 -7.16767 26.1556 -7.82701 -22.5585 -31.1747 30.6735 -0.782663 -6.70277 -7.07936 6.73961 -7.1577 -1.36788 7.58344 16.7268 
10.1497 87.5767 8.19235 -108.898 50.9591 -73.881 -179.209 13.4709 86.2262 -59.6169 30.539 3.91781 69.285 12.5572 34.3918 49.2907 -6.39303 -0.86569 169.363 43.3836 83.558 -121.951 -21.9375 -3.76464 47.857 6.86668 8.61908 50.1271 -3.04369 0.595628 -0.462186 9.94629 -88.947 6.97293 -0.470802 2.08394 -4.69971 -0.378685 2.10263 -27.2244 -1.0752 1.84626 -7.21171 -1.07521 1.84624 105.298 -39.8464 -76.5558 15.0826 11.5972 21.7548 -8.19049 -2.27561 -53.4292 -3.42555 0.0049483 -5.86816 -77.9886 -47.8681 96.6616 1.90366 -2.42021 -3.30679 -6.42776 -21.0437 -25.7309 23.3209 -0.702008 -7.07244 2.31075 6.54385 -11.1648 -3.97988 8.14262 19.1841 
-0.0869582 88.8709 -3.28836 -99.4811 39.3025 -79.1844 174.828 5.89717 87.1725 -59.1061 31.8832 9.15478 71.1792 13.6998 31.501 51.3878 -6.75965 1.85177 165.272 43.5047 94.1429 -79.5358 -14.3044 0.620212 57.7862 2.68106 11.5935 52.5451 -3.21426 2.89326 -1.44932 9.90252 -89.5021 7.09629 -2.68017 1.10143 -4.57274 -2.62908 1.21835 -27.1286 -2.88736 0.244478 -7.11596 -2.88738 0.244475 107.142 -49.9124 -74.4128 26.5271 7.20932 21.0824 -12.597 -13.8801 -37.142 -2.55808 -0.0326277 -4.18286 -84.8453 -52.5623 86.5446 -2.91134 6.04575 -24.3981 1.32392 -5.38102 -29.1389 16.1697 -0.833373 -8.96417 6.87216 5.47024 -13.6746 -8.37726 7.23582 19.6174 
-12.4753 89.7648 -15.0061 -91.7081 31.4471 -83.0776 171.754 2.61992 89.8614 -59.9573 32.2755 12.5706 63.0853 5.03277 18.1538 53.7845 -7.25662 3.57034 175.865 36.3113 88.5393 -23.3624 -10.7227 1.58948 37.0093 10.9966 21.628 71.5475 -2.9677 12.6978 -2.04061 9.54998 -90.2968 7.76912 -4.20324 -0.358778 -3.89497 -4.21496 -0.17311 -26.4789 -3.90079 -1.60734 -6.46625 -3.90079 -1.60734 107.171 -52.0274 -74.562 34.2739 4.24701 23.2726 -4.21404 -3.47404 -34.0243 -5.99324 -0.08041 -3.57018 -86.4256 -53.8432 84.4269 -2.5504 16.3994 -36.0664 5.68588 -1.93917 -44.2118 10.6754 -0.707943 -9.74692 11.5947 4.16521 -15.1287 -11.4455 6.22976 21.2966 
-26.0036 86.9427 -26.6647 -94.075 29.1229 -86.4898 172.889 -1.96685 87.4216 -68.5942 22.2076 7.71077 60.3036 3.8522 16.7473 48.8943 -5.59213 7.92964 170.531 38.6098 83.9324 -34.1972 -16.1314 5.49244 49.3301 7.64722 8.3855 27.3037 0.143365 0.562364 -1.98312 9.40455 -90.1022 8.06728 -4.00319 0.0259629 -3.5975 -3.99814 0.202396 -26.1791 -3.82564 -1.18015 -6.1665 -3.82562 -1.18016 105.894 -50.2721 -76.375 35.8145 1.18082 28.9298 -9.9679 -11.3271 -38.6679 2.98862 -0.113228 -7.80989 -87.4274 -53.3954 82.9108 -2.98461 21.4785 -39.9482 4.83404 -1.84049 -45.9308 7.6267 -0.517653 -9.24936 7.32535 3.51676 -12.7221 -9.43077 5.10581 17.9498 
-36.3386 84.8471 -36.3388 -95.557 33.3358 -79.5361 175.346 9.38033 94.4417 -89.9993 15.9058 3.55233 63.0969 6.53789 18.5419 47.299 -5.42775 4.57439 167.523 40.2213 92.2255 -57.116 -15.618 4.59638 55.3541 4.87539 13.3266 35.2768 -0.949057 0.407664 -1.19672 9.91359 -91.0597 7.01326 -2.84501 -1.96075 -4.65594 -2.92852 -1.8336 -27.1945 -2.12446 -2.72505 -7.18181 -2.12447 -2.72506 103.754 -52.873 -79.7783 26.1065 -2.15688 12.1887 -7.84705 -19.94 -25.2209 3.0725 0.0176152 -3.81776 -89.3462 -56.3918 80.6864 -10.2711 15.1212 -37.4934 4.2789 3.64037 -28.9545 17.6414 -0.291111 -5.63101 11.6693 3.91255 -10.5243 -10.3041 5.1806 19.657 
-45.5792 87.2288 -45.0162 -95.6977 38.0662 -80.4792 176.371 25.7488 91.1239 -87.059 16.3828 2.50984 64.7905 7.71281 20.195 50.5248 -6.45388 2.70627 168.634 31.9409 92.2625 -58.1768 -21.428 4.93125 63.759 -1.15829 0.719507 41.2096 -1.83429 3.49839 -0.687797 9.89064 -90.7963 7.08524 -1.716 -1.49073 -4.58543 -1.77992 -1.41378 -27.1185 -1.18875 -1.93744 -7.10581 -1.18874 -1.93744 101.872 -52.9763 -82.6105 19.755 -1.33257 -6.55705 -3.84247 -29.8675 -13.3582 0.643735 0.0108947 0.174973 -90.8361 -57.6997 78.8633 -11.3259 12.7225 -30.6198 2.54221 13.7103 -12.9094 16.8393 0.579636 -0.267556 6.1452 3.37198 -12.3992 -7.51201 5.0104 19.894 
-54.5093 90.912 -53.681 -97.5774 42.4171 -79.0799 179.211 32.0062 91.7786 -60.1268 16.0534 3.72044 67.025 7.56838 18.0843 52.5955 -7.1756 1.35367 173.952 21.0767 92.645 -54.2779 -15.9044 1.34784 61.2717 1.43976 9.45843 47.3276 -2.38302 5.57417 -0.190723 9.72642 -90.5493 7.41558 -0.618507 -1.05228 -4.25561 -0.664223 -1.02405 -26.7876 -0.273677 -1.1895 -6.77497 -0.27368 -1.18951 101.641 -51.8971 -82.9654 16.8711 -8.46263 -13.1584 -1.26765 -14.9941 -20.7118 -6.88748 -0.150939 -2.31416 -89.7835 -56.6522 80.1232 -11.7424 14.6157 -19.1446 0.492613 16.3598 -9.07009 8.67294 0.0882268 -2.67785 2.81789 3.20783 -11.5432 -8.16358 4.31222 18.2021 
-65.0517 92.6112 -63.2755 -98.8831 41.9724 -79.6464 -179.801 27.545 91.3181 -19.3864 21.7932 2.91342 39.5954 -6.0893 1.03914 61.3576 -10.1891 -0.62576 177.43 5.61128 93.1113 -46.75 -8.05215 -2.01553 68.5982 -0.829547 13.7588 47.5622 -2.6127 1.79824 -0.234288 9.23282 -90.2322 8.40703 -0.569872 -0.424111 -3.26386 -0.587982 -0.398631 -25.7991 -0.416087 -0.575776 -5.78641 -0.416096 -0.575787 102.564 -51.9404 -81.5606 18.4023 -9.63456 -11.2589 -3.76302 -6.43041 -36.4284 -5.08339 -0.00317324 -5.71455 -89.2069 -53.9914 80.446 -15.0628 16.9099 -6.96087 1.03153 21.4594 -10.3295 3.87822 -0.0277641 -3.2204 -0.0682884 3.12858 -11.9239 -12.0865 3.41596 17.8246 
-76.1219 90.8814 -73.3089 -100.649 46.9849 -75.9251 -174.869 26.8947 93.9751 -13.5045 16.7264 1.82625 30.22 -7.98509 -6.30717 62.5536 -10.3712 -0.561496 179.964 -4.1303 95.3346 -46.3415 -6.78505 -4.18701 65.2714 0.644375 14.9247 55.131 -3.709 0.519735 0.283191 8.43899 -90.2955 9.99646 0.430065 -0.62553 -1.67457 0.402127 -0.643858 -24.2097 0.598197 -0.467353 -4.19702 0.598183 -0.467366 103.198 -51.0316 -80.5783 21.5355 -10.8204 -8.40344 -4.56479 -2.94072 -47.1249 -5.89512 0.0879971 -7.66714 -88.4062 -51.1926 81.1023 -18.5691 17.5691 3.94382 1.93121 19.9452 -13.5784 -4.22341 -0.0742605 -5.78254 -4.34064 3.99397 -12.3188 -12.8884 3.78512 17.6613 
-86.0849 87.7346 -81.557 -105.636 45.9054 -77.0881 -174.3 30.4282 87.5112 -44.7033 22.61 -0.0263713 53.8757 -1.07306 17.9134 34.9489 -1.69886 -5.29794 174.718 -8.36391 85.9741 -58.0316 -6.72516 -4.23571 53.7637 4.68854 18.0729 48.2233 -2.50967 2.41113 -0.00894107 8.44193 -89.6966 9.99816 0.120231 0.608959 -1.67275 0.146929 0.603065 -24.2073 -0.0683593 0.616933 -4.19467 -0.0683599 0.616926 103.017 -52.7726 -80.8804 22.6957 -10.0196 -7.18631 -7.22905 -4.66613 -50.9929 -9.11303 0.0208287 -5.77887 -87.7266 -52.4138 82.3068 -13.6595 15.8739 0.657077 0.890656 22.3247 -10.5085 -6.70016 -0.0548649 -5.94004 -2.61962 3.97171 -13.15 -13.0714 3.94648 18.2672 
